<svg xmlns="http://www.w3.org/2000/svg" viewBox="0 0 154 47"><defs><style></style></defs><title>Qlik Logo</title><g fill="none"><path fill="#54565B" d="M89.69 25.134c-.677-1.105.215-2.032.215-2.032l7.842-8.092c.891-.927-.392-.927-.392-.927h-7.308c-1.283 0-2.174.927-2.174.927l-7.237 7.7c-.891.927-.891-.357-.891-.357V5.527c0-1.283-1.283-1.283-1.283-1.283h-5.526c-1.248 0-1.248 1.248-1.248 1.248v35.184c0 1.284 1.284 1.284 1.284 1.284h5.49c1.247 0 1.247-1.248 1.247-1.248v-6.167c0-1.283.927-2.175.927-2.175l2.602-2.424 6.488 10.909c.642 1.105 1.925 1.105 1.925 1.105h6.952c1.283 0 .606-1.105.606-1.105L89.69 25.134zM65.914 40.676V15.331c0-1.284-1.283-1.284-1.283-1.284H59.07c-1.283 0-1.283 1.284-1.283 1.284v25.345c0 1.284 1.283 1.284 1.283 1.284h5.561c1.283 0 1.283-1.284 1.283-1.284zM65.7 9.092V5.456s0-1.248-1.248-1.248h-5.419s-1.247 0-1.247 1.248v3.636s0 1.248 1.247 1.248h5.454s1.213 0 1.213-1.248zM51.832 40.676V5.563c0-1.283-1.283-1.283-1.283-1.283h-5.668c-1.283 0-1.283 1.283-1.283 1.283v35.113c0 1.284 1.283 1.284 1.283 1.284h5.668c1.283 0 1.283-1.284 1.283-1.284zM39.106 39.18s.713-.82-.107-1.533l-4.527-3.957c2.032-3.03 3.244-6.63 3.244-10.552 0-10.409-8.449-18.857-18.858-18.857C8.448 4.28 0 12.728 0 23.137c0 10.41 8.449 18.858 18.858 18.858 3.814 0 7.343-1.14 10.338-3.101l4.99 4.313s.82.713 1.533-.107l3.387-3.92zm-9.375-16.077c0 6.024-4.884 10.908-10.909 10.908-6.024 0-10.908-4.884-10.908-10.908 0-6.025 4.884-10.908 10.908-10.908 6.025.035 10.909 4.883 10.909 10.908z"/><path fill="#009848" d="M152.61 39.571l-6.06-5.097c2.103-3.351 3.35-7.308 3.35-11.55 0-11.943-9.696-21.639-21.638-21.639-11.942 0-21.638 9.696-21.638 21.639 0 11.942 9.696 21.638 21.638 21.638 4.634 0 8.948-1.462 12.477-3.957l6.452 5.419s.963.82 1.783-.143l3.85-4.563c-.036 0 .748-.962-.214-1.747zm-11.051-16.647c0 7.343-5.953 13.296-13.297 13.296-7.343 0-13.297-5.953-13.297-13.296 0-7.344 5.954-13.297 13.297-13.297 7.344 0 13.297 5.953 13.297 13.297z"/><path fill="#54565B" d="M119.706 22.924a8.52 8.52 0 018.52-8.52 8.52 8.52 0 018.52 8.52 8.52 8.52 0 01-8.52 8.52 8.52 8.52 0 01-8.52-8.52zm29.268-15.258a2.35 2.35 0 012.352-2.353 2.35 2.35 0 012.353 2.353 2.374 2.374 0 01-2.353 2.353 2.374 2.374 0 01-2.352-2.353zm2.352-2.067c-1.105 0-1.996.89-1.996 2.032 0 1.14.856 2.031 1.996 2.031 1.141 0 1.997-.89 1.997-2.031-.036-1.106-.856-2.032-1.997-2.032zm-.534 3.493h-.321V6.205h1.034c.499 0 .89.25.89.784 0 .463-.249.748-.676.784l.82 1.283h-.393l-.748-1.283h-.57v1.32h-.036zm0-1.568h.641c.392 0 .642-.072.642-.535 0-.357-.285-.5-.642-.5h-.641v1.035z"/></g></svg>